# xmcd
# 
# Track frame offsets:
#     150
#     23307
#     42772
#     65232
#     78610
#     101262
#     122340
#     139245
#     170362
#     187067
#     213327
#     233547
#     250297
#     273262
#     290605
# 
# Disc length: 4206
# 
# Revision: 1
# Processed by: cddbd v1.5.2PL0 Copyright (c) Steve Scherf et al.
# Submitted via: fre:ac v1.0.31
# 
DISCID=cd106c0f
DTITLE=Various Artist - 坂本九トリビュートアルバム
DYEAR=1997
DGENRE=Blues
TTITLE0=長渕剛 - 上を向いて歩こう
TTITLE1=中西圭三 - 明日があるさ
TTITLE2=JAYWALK - 一人ぼっちの二人
TTITLE3=西田ひかる with Swe Be - ビキニスタイルのお嬢さん
TTITLE4=中山秀征&The虎舞竜 - G.I.ブルース〜レット・キス（ジェンカ）
TTITLE5=南こうせつ - ともだち
TTITLE6=宇崎竜童 - ボクの星
TTITLE7=一路真輝 - 心の瞳
TTITLE8=坂本冬美 with MEN'S 5 - 九ちゃん音頭
TTITLE9=coba - 悲しき60才（ムスターファ）
TTITLE10=大江千里 - 見上げてごらん夜の星を
TTITLE11=ダニー飯田とパラダイスキング with ジェリー藤尾、森山加代子、九重佑三子 - 幸せなら手をたたこう
TTITLE12=THE ALFEE - 涙くんさよなら
TTITLE13=DICK LEE - SUKIYAKI
TTITLE14=大島花子、大島舞子 - そして想い出（朗読：吉永小百合）
EXTD=YEAR: 1997
EXTT0=
EXTT1=
EXTT2=
EXTT3=
EXTT4=
EXTT5=
EXTT6=
EXTT7=
EXTT8=
EXTT9=
EXTT10=
EXTT11=
EXTT12=
EXTT13=
EXTT14=
PLAYORDER=
